<svg width="272" height="45" viewBox="0 0 272 45" fill="none" xmlns="http://www.w3.org/2000/svg">
<path fill-rule="evenodd" clip-rule="evenodd" d="M46.1128 0.0912182C42.3937 0.894843 39.8705 4.21122 40.081 8.01872C40.2291 10.6963 41.6932 12.9278 44.126 14.184C45.297 14.7885 46.0743 14.9711 47.477 14.9711C48.8785 14.9711 49.6828 14.8008 50.7316 14.2823C53.5226 12.9022 54.9752 10.5593 54.9546 7.47109C54.9328 4.20434 53.0213 1.55822 49.8306 0.377468C48.905 0.0349683 47.0382 -0.108782 46.1128 0.0912182ZM26.8192 3.83222C26.637 4.03084 26.0097 5.05409 25.4253 6.10609C24.841 7.15809 24.2018 8.30334 24.0051 8.65122C23.8083 8.99897 23.3243 9.87422 22.9296 10.5961C18.2383 19.173 17.3781 20.6678 17.1652 20.6125C16.4496 20.4265 15.9068 20.4577 15.3743 20.7156C14.5881 21.0961 14.3192 21.4625 13.6201 23.106C13.0146 24.5295 12.2883 26.1641 11.209 28.5336C10.8958 29.2211 10.4813 30.1348 10.2881 30.5641L9.93645 31.3445L9.0872 30.7012C8.0942 29.9491 7.60395 29.7211 6.97983 29.7211C6.0122 29.7211 5.72783 30.0797 4.36095 33.0237C3.91645 33.9807 3.02445 35.7526 2.3787 36.9612C0.108204 41.21 -0.0035462 41.4538 7.88026e-05 42.1491C0.0042038 42.958 0.295329 43.5065 0.950704 43.9403L1.4692 44.2836L4.97845 44.282C6.90858 44.281 14.6753 44.211 22.2378 44.1262C29.8003 44.0415 40.368 43.9346 45.7213 43.8887C55.2572 43.8071 55.4655 43.8001 55.9713 43.5445C56.6081 43.2228 56.9253 42.6363 56.924 41.7836C56.9227 41.0651 56.6586 40.4402 55.6555 38.7836C55.2808 38.1648 54.2108 36.393 53.2777 34.8461C48.0295 26.1461 48.2963 26.557 47.7151 26.2812C46.9612 25.9235 46.5145 26.1042 45.3538 27.2372L44.3345 28.2321L43.5231 26.9453C42.3678 25.1131 38.0885 18.1203 37.3045 16.7836C36.2418 14.9718 33.9675 11.2996 32.7293 9.39647C32.0987 8.42734 31.2012 7.02109 30.7347 6.27147C29.243 3.87447 28.8105 3.47109 27.7317 3.47109C27.2508 3.47109 27.0935 3.53334 26.8192 3.83222ZM27.6532 8.68984C26.4706 10.712 21.226 20.5167 20.8698 21.3713C20.6852 21.8142 20.6893 21.8483 20.9647 22.1686C21.4 22.6746 21.6536 22.4995 22.3837 21.1883C23.156 19.8018 23.3738 19.5852 24.0768 19.5061C25.1815 19.3815 25.4435 20.3926 24.688 21.8655C24.1207 22.9716 24.1823 23.0961 25.2975 23.0961H26.1775L26.109 22.4398C26.0455 21.833 26.0736 21.7391 26.4822 21.1923C27.0128 20.4825 27.4302 20.3335 27.905 20.6848C28.3571 21.0192 28.5303 21.415 28.756 22.6275C28.9497 23.6681 29.1446 24.0802 29.2738 23.7223C29.311 23.6198 29.4965 23.3807 29.6862 23.1911C30.3292 22.548 31.3595 22.8243 31.8952 23.7836C31.9996 23.9706 32.0709 23.9978 32.1783 23.8916C32.2862 23.7848 32.2385 23.5521 31.9865 22.9541C31.3607 21.4693 31.3113 21.2842 31.3058 20.4052C31.2988 19.2942 31.518 18.9083 32.0908 19.023C32.7152 19.1478 33.0052 19.4135 33.7882 20.5781C34.5645 21.7325 35.1221 22.2966 35.6073 22.4183C36.0063 22.5185 36.6176 22.4347 36.5902 22.2836C36.5691 22.1672 33.2492 16.4952 32.054 14.5336C31.7607 14.0523 30.9731 12.8711 30.3037 11.9086C29.6343 10.9461 28.8471 9.75084 28.5542 9.25234C28.2615 8.75384 27.9841 8.34609 27.9381 8.34609C27.892 8.34609 27.7637 8.50084 27.6532 8.68984Z" fill="#323437"/>
<path d="M76.4318 12.794V8.81818H97.321V12.794H89.2287V35H84.5241V12.794H76.4318Z" fill="#323437"/>
<path d="M110.987 26.7415V15.3636H115.615V35H111.128V31.5099H110.923C110.48 32.6094 109.751 33.5085 108.737 34.2074C107.732 34.9062 106.491 35.2557 105.017 35.2557C103.73 35.2557 102.592 34.9702 101.604 34.3991C100.624 33.8196 99.8565 32.9801 99.3026 31.8807C98.7486 30.7727 98.4716 29.4347 98.4716 27.8665V15.3636H103.099V27.1506C103.099 28.3949 103.44 29.3835 104.122 30.1165C104.804 30.8494 105.699 31.2159 106.807 31.2159C107.489 31.2159 108.149 31.0497 108.788 30.7173C109.428 30.3849 109.952 29.8906 110.361 29.2344C110.778 28.5696 110.987 27.7386 110.987 26.7415Z" fill="#323437"/>
<path d="M125.002 23.4943V35H120.374V15.3636H124.797V18.7003H125.027C125.479 17.6009 126.199 16.7273 127.188 16.0795C128.185 15.4318 129.417 15.108 130.882 15.108C132.238 15.108 133.418 15.3977 134.424 15.9773C135.438 16.5568 136.222 17.3963 136.776 18.4957C137.338 19.5952 137.615 20.929 137.607 22.4972V35H132.979V23.2131C132.979 21.9006 132.638 20.8736 131.956 20.1321C131.283 19.3906 130.35 19.0199 129.157 19.0199C128.347 19.0199 127.627 19.1989 126.996 19.5568C126.374 19.9062 125.884 20.4134 125.526 21.0781C125.176 21.7429 125.002 22.5483 125.002 23.4943Z" fill="#323437"/>
<path d="M149.598 35.3452C148.056 35.3452 146.675 34.9489 145.456 34.1562C144.238 33.3636 143.275 32.2131 142.567 30.7045C141.86 29.196 141.506 27.3636 141.506 25.2074C141.506 23.0256 141.864 21.1847 142.58 19.6847C143.304 18.1761 144.28 17.0384 145.507 16.2713C146.735 15.4957 148.103 15.108 149.611 15.108C150.762 15.108 151.708 15.304 152.449 15.696C153.191 16.0795 153.779 16.544 154.213 17.0895C154.648 17.6264 154.985 18.1335 155.223 18.6108H155.415V8.81818H160.056V35H155.505V31.9062H155.223C154.985 32.3835 154.64 32.8906 154.188 33.4276C153.736 33.956 153.14 34.4077 152.398 34.7827C151.657 35.1577 150.723 35.3452 149.598 35.3452ZM150.89 31.5483C151.87 31.5483 152.705 31.2841 153.395 30.7557C154.086 30.2188 154.61 29.473 154.968 28.5185C155.326 27.5639 155.505 26.4517 155.505 25.1818C155.505 23.9119 155.326 22.8082 154.968 21.8707C154.618 20.9332 154.098 20.2045 153.408 19.6847C152.726 19.1648 151.887 18.9048 150.89 18.9048C149.858 18.9048 148.998 19.1733 148.307 19.7102C147.617 20.2472 147.097 20.9886 146.748 21.9347C146.398 22.8807 146.223 23.9631 146.223 25.1818C146.223 26.4091 146.398 27.5043 146.748 28.4673C147.105 29.4219 147.63 30.1761 148.32 30.7301C149.019 31.2756 149.875 31.5483 150.89 31.5483Z" fill="#323437"/>
<path d="M164.987 35V15.3636H169.474V18.6364H169.679C170.037 17.5028 170.651 16.6293 171.52 16.0156C172.398 15.3935 173.399 15.0824 174.524 15.0824C174.78 15.0824 175.065 15.0952 175.381 15.1207C175.705 15.1378 175.973 15.1676 176.186 15.2102V19.4673C175.99 19.3991 175.679 19.3395 175.253 19.2884C174.835 19.2287 174.43 19.1989 174.038 19.1989C173.195 19.1989 172.436 19.3821 171.763 19.7486C171.098 20.1065 170.574 20.6051 170.19 21.2443C169.807 21.8835 169.615 22.6207 169.615 23.456V35H164.987Z" fill="#323437"/>
<path d="M184.56 35.3963C183.315 35.3963 182.195 35.1747 181.197 34.7315C180.209 34.2798 179.425 33.6151 178.845 32.7372C178.274 31.8594 177.989 30.777 177.989 29.4901C177.989 28.3821 178.193 27.4659 178.602 26.7415C179.011 26.017 179.57 25.4375 180.277 25.0028C180.984 24.5682 181.781 24.2401 182.668 24.0185C183.562 23.7884 184.487 23.6222 185.442 23.5199C186.592 23.4006 187.526 23.294 188.241 23.2003C188.957 23.098 189.477 22.9446 189.801 22.7401C190.134 22.527 190.3 22.1989 190.3 21.7557V21.679C190.3 20.7159 190.014 19.9702 189.443 19.4418C188.872 18.9134 188.05 18.6491 186.976 18.6491C185.842 18.6491 184.943 18.8963 184.278 19.3906C183.622 19.8849 183.179 20.4688 182.949 21.142L178.628 20.5284C178.969 19.3352 179.531 18.3381 180.315 17.5369C181.099 16.7273 182.058 16.1222 183.192 15.7216C184.325 15.3125 185.578 15.108 186.95 15.108C187.896 15.108 188.838 15.2188 189.776 15.4403C190.713 15.6619 191.57 16.0284 192.345 16.5398C193.121 17.0426 193.743 17.7287 194.212 18.598C194.689 19.4673 194.928 20.554 194.928 21.858V35H190.479V32.3026H190.325C190.044 32.848 189.648 33.3594 189.136 33.8366C188.634 34.3054 187.999 34.6847 187.232 34.9744C186.473 35.2557 185.582 35.3963 184.56 35.3963ZM185.761 31.9957C186.69 31.9957 187.496 31.8125 188.178 31.446C188.859 31.071 189.384 30.5767 189.75 29.9631C190.125 29.3494 190.312 28.6804 190.312 27.956V25.642C190.168 25.7614 189.92 25.8722 189.571 25.9744C189.23 26.0767 188.847 26.1662 188.42 26.2429C187.994 26.3196 187.572 26.3878 187.155 26.4474C186.737 26.5071 186.375 26.5582 186.068 26.6009C185.378 26.6946 184.76 26.848 184.214 27.0611C183.669 27.2741 183.239 27.5724 182.923 27.956C182.608 28.331 182.45 28.8168 182.45 29.4134C182.45 30.2656 182.761 30.9091 183.384 31.3438C184.006 31.7784 184.798 31.9957 185.761 31.9957Z" fill="#323437"/>
<path d="M208.658 35H199.786V8.81818H208.837C211.436 8.81818 213.669 9.34233 215.536 10.3906C217.411 11.4304 218.851 12.9261 219.857 14.8778C220.862 16.8295 221.365 19.1648 221.365 21.8835C221.365 24.6108 220.858 26.9545 219.844 28.9148C218.838 30.875 217.385 32.3793 215.484 33.4276C213.592 34.4758 211.317 35 208.658 35ZM204.528 30.8963H208.428C210.251 30.8963 211.773 30.5639 212.991 29.8991C214.21 29.2259 215.126 28.2244 215.74 26.8949C216.354 25.5568 216.661 23.8864 216.661 21.8835C216.661 19.8807 216.354 18.2188 215.74 16.8977C215.126 15.5682 214.219 14.5753 213.017 13.919C211.824 13.2543 210.341 12.9219 208.568 12.9219H204.528V30.8963Z" fill="#323437"/>
<path d="M247.387 8.81818V35H243.168L230.832 17.1662H230.614V35H225.871V8.81818H230.116L242.44 26.6648H242.67V8.81818H247.387Z" fill="#323437"/>
<path d="M266.784 16.0156C266.664 14.8991 266.162 14.0298 265.275 13.4077C264.397 12.7855 263.255 12.4744 261.849 12.4744C260.86 12.4744 260.012 12.6236 259.305 12.9219C258.598 13.2202 258.056 13.625 257.681 14.1364C257.306 14.6477 257.115 15.2315 257.106 15.8878C257.106 16.4332 257.23 16.9062 257.477 17.3068C257.733 17.7074 258.078 18.0483 258.512 18.3295C258.947 18.6023 259.429 18.8324 259.957 19.0199C260.485 19.2074 261.018 19.3651 261.555 19.4929L264.01 20.1065C264.998 20.3366 265.949 20.6477 266.86 21.0398C267.781 21.4318 268.603 21.9261 269.328 22.5227C270.061 23.1193 270.64 23.8395 271.066 24.6832C271.493 25.527 271.706 26.5156 271.706 27.6491C271.706 29.1832 271.314 30.5341 270.529 31.7017C269.745 32.8608 268.612 33.7685 267.129 34.4247C265.654 35.0724 263.869 35.3963 261.772 35.3963C259.735 35.3963 257.967 35.081 256.467 34.4503C254.976 33.8196 253.808 32.8991 252.964 31.6889C252.129 30.4787 251.677 29.0043 251.609 27.2656H256.275C256.343 28.1776 256.625 28.9361 257.119 29.5412C257.613 30.1463 258.257 30.598 259.049 30.8963C259.85 31.1946 260.745 31.3438 261.734 31.3438C262.765 31.3438 263.669 31.1903 264.444 30.8835C265.228 30.5682 265.842 30.1335 266.285 29.5795C266.728 29.017 266.954 28.3608 266.963 27.6108C266.954 26.929 266.754 26.3665 266.362 25.9233C265.97 25.4716 265.42 25.0966 264.713 24.7983C264.014 24.4915 263.196 24.2188 262.258 23.9801L259.279 23.2131C257.123 22.6591 255.419 21.8196 254.166 20.6946C252.922 19.5611 252.299 18.0568 252.299 16.1818C252.299 14.6392 252.717 13.2884 253.552 12.1293C254.396 10.9702 255.542 10.071 256.991 9.43182C258.44 8.78409 260.081 8.46023 261.913 8.46023C263.771 8.46023 265.399 8.78409 266.797 9.43182C268.203 10.071 269.306 10.9616 270.108 12.1037C270.909 13.2372 271.322 14.5412 271.348 16.0156H266.784Z" fill="#323437"/>
</svg>
