<svg width="57" height="45" viewBox="0 0 57 45" fill="none" xmlns="http://www.w3.org/2000/svg" aria-hidden="true" role="img" class="iconify iconify--logos">
    <path fill-rule="evenodd" clip-rule="evenodd"
        d="M46.1128 0.0912182C42.3937 0.894843 39.8705 4.21122 40.081 8.01872C40.2291 10.6963 41.6932 12.9278 44.126 14.184C45.297 14.7885 46.0743 14.9711 47.477 14.9711C48.8785 14.9711 49.6828 14.8008 50.7316 14.2823C53.5226 12.9022 54.9752 10.5593 54.9546 7.47109C54.9328 4.20434 53.0213 1.55822 49.8306 0.377468C48.905 0.0349683 47.0382 -0.108782 46.1128 0.0912182ZM26.8192 3.83222C26.637 4.03084 26.0097 5.05409 25.4253 6.10609C24.841 7.15809 24.2018 8.30334 24.0051 8.65122C23.8083 8.99897 23.3243 9.87422 22.9296 10.5961C18.2383 19.173 17.3781 20.6678 17.1652 20.6125C16.4496 20.4265 15.9068 20.4577 15.3743 20.7156C14.5881 21.0961 14.3192 21.4625 13.6201 23.106C13.0146 24.5295 12.2883 26.1641 11.209 28.5336C10.8958 29.2211 10.4813 30.1348 10.2881 30.5641L9.93645 31.3445L9.0872 30.7012C8.0942 29.9491 7.60395 29.7211 6.97983 29.7211C6.0122 29.7211 5.72783 30.0797 4.36095 33.0237C3.91645 33.9807 3.02445 35.7526 2.3787 36.9612C0.108204 41.21 -0.0035462 41.4538 7.88027e-05 42.1491C0.0042038 42.958 0.295329 43.5065 0.950704 43.9403L1.4692 44.2836L4.97845 44.282C6.90858 44.281 14.6753 44.211 22.2378 44.1262C29.8003 44.0415 40.368 43.9346 45.7213 43.8887C55.2572 43.8071 55.4655 43.8001 55.9713 43.5445C56.6081 43.2228 56.9253 42.6363 56.924 41.7836C56.9227 41.0651 56.6586 40.4402 55.6555 38.7836C55.2808 38.1648 54.2108 36.393 53.2777 34.8461C48.0295 26.1461 48.2963 26.557 47.7151 26.2812C46.9612 25.9235 46.5145 26.1042 45.3538 27.2372L44.3345 28.2321L43.5231 26.9453C42.3678 25.1131 38.0885 18.1203 37.3045 16.7836C36.2418 14.9718 33.9675 11.2996 32.7293 9.39647C32.0987 8.42734 31.2012 7.02109 30.7347 6.27147C29.243 3.87447 28.8105 3.47109 27.7317 3.47109C27.2508 3.47109 27.0935 3.53334 26.8192 3.83222ZM27.6532 8.68984C26.4706 10.712 21.226 20.5167 20.8698 21.3713C20.6852 21.8142 20.6893 21.8483 20.9647 22.1686C21.4 22.6746 21.6536 22.4995 22.3837 21.1883C23.156 19.8018 23.3738 19.5852 24.0768 19.5061C25.1815 19.3815 25.4435 20.3926 24.688 21.8655C24.1207 22.9716 24.1823 23.0961 25.2975 23.0961H26.1775L26.109 22.4398C26.0455 21.833 26.0736 21.7391 26.4822 21.1923C27.0128 20.4825 27.4302 20.3335 27.905 20.6848C28.3571 21.0192 28.5303 21.415 28.756 22.6275C28.9497 23.6681 29.1446 24.0802 29.2738 23.7223C29.311 23.6198 29.4965 23.3807 29.6862 23.1911C30.3292 22.548 31.3595 22.8243 31.8952 23.7836C31.9996 23.9706 32.071 23.9978 32.1783 23.8916C32.2862 23.7848 32.2385 23.5521 31.9865 22.9541C31.3607 21.4693 31.3113 21.2842 31.3058 20.4052C31.2988 19.2942 31.518 18.9083 32.0908 19.023C32.7152 19.1478 33.0052 19.4135 33.7882 20.5781C34.5645 21.7325 35.1221 22.2966 35.6073 22.4183C36.0063 22.5185 36.6176 22.4347 36.5902 22.2836C36.5691 22.1672 33.2492 16.4952 32.054 14.5336C31.7607 14.0523 30.9731 12.8711 30.3037 11.9086C29.6343 10.9461 28.8471 9.75084 28.5542 9.25234C28.2615 8.75384 27.9841 8.34609 27.9381 8.34609C27.892 8.34609 27.7637 8.50084 27.6532 8.68984Z"
        fill="white" />
</svg>